<?xml version="1.0" encoding="utf-8"?>
<!-- Generator: Adobe Illustrator 27.9.0, SVG Export Plug-In . SVG Version: 6.00 Build 0)  -->
<svg version="1.1" id="Layer_1" xmlns="http://www.w3.org/2000/svg" xmlns:xlink="http://www.w3.org/1999/xlink" x="0px" y="0px"
	 viewBox="0 0 250 250" style="enable-background:new 0 0 250 250;" xml:space="preserve">
<style type="text/css">
	.st0{opacity:0.2;fill:#003975;enable-background:new    ;}
	.st1{fill:#EFDECC;}
	.st2{opacity:0.3;}
	.st3{fill:#003975;}
	.st4{fill:#E0CFBD;}
	.st5{fill:#FFB200;}
	.st6{fill:#FEB300;}
	.st7{fill:#FBE291;}
	.st8{opacity:0.2;}
	.st9{fill:#FFFFFF;}
	.st10{fill:#F28D01;}
	.st11{opacity:0.24;}
	.st12{opacity:0.13;}
	.st13{opacity:0.6;}
	.st14{clip-path:url(#SVGID_00000039855821111487306170000012435469933852931495_);}
	.st15{filter:url(#Adobe_OpacityMaskFilter);}
	.st16{clip-path:url(#SVGID_00000115506826488740070820000008383015304814063012_);}
	.st17{clip-path:url(#SVGID_00000052073019134540931800000008622955928063631771_);}
	
		.st18{clip-path:url(#SVGID_00000032616488746554457220000012957552146871006118_);fill:url(#SVGID_00000170995048728280154890000010644260941777054628_);}
	
		.st19{clip-path:url(#SVGID_00000115506826488740070820000008383015304814063012_);mask:url(#SVGID_00000167378849725995973930000013556868222319687328_);fill:url(#SVGID_00000101811546516120952810000010519613141600774556_);}
	.st20{opacity:0.6;fill:url(#SVGID_00000104706148002073667460000012508116907490417855_);enable-background:new    ;}
	.st21{opacity:0.83;}
	.st22{fill:#CE2828;}
	.st23{opacity:0.25;}
</style>
<g>
	<ellipse class="st0" cx="130.6" cy="239.1" rx="63.3" ry="6.1"/>
	<g>
		<g>
			<path class="st1" d="M223,70.9c-1.1,1.9-3.2,3.1-5.4,2.8l-19.8-2.8l-12.4,88.3c-3,25.1-10.7,36.9-28,35c-0.4-0.1-0.9-0.1-1.4-0.1
				l-121.4-17c-19.7-2.9-13.5-47,6.1-44.2l18.7,2.6l5.2-37.6l8.9-3.3l-7.9-4.2l1.2-8.1l17.6-4.1L69.2,66.1l4.2-29.5
				c1.5-8.7,5.2-14.6,11.3-17.1c2.7-1.1,5.6-1.4,8.4-0.9l122.3,17.1C228.6,40,229.9,57.9,223,70.9z"/>
		</g>
		<g class="st2">
			<path class="st3" d="M196.3,48.8l-16.4,117.8c0,0-4.2,31.5-31.8,21.8s-40.7-21.4-40.7-21.4l0.2-18.9
				C150,155.8,177.3,115.5,196.3,48.8z"/>
		</g>
		<g>
			<path class="st4" d="M163.4,171.2l-18.4-2.6c-2.1,9.7,0.2,17.1,4.5,21.4c2.2,2.2,4.9,3.6,7.9,4.1c-0.4-0.1-0.9-0.1-1.4-0.1
				L34.7,177c-7.5-1.1-11.2-8.1-11.9-16.3c-1.1-13.3,5.9-29.6,18.1-27.9l117.8,16.5C173.7,152.8,175.1,171.2,163.4,171.2z"/>
		</g>
		<g>
			<g>
				<g>
					<path class="st3" d="M116.1,48.2l-1.2-4.8c1.6-0.4,3.2-0.7,4.8-0.9l0.7,5C118.9,47.6,117.5,47.9,116.1,48.2z"/>
				</g>
			</g>
			<g>
				<g>
					<path class="st3" d="M129,42.4l-0.6,5c2.7,0.3,5.4,1,7.9,1.9l1.8-4.7C135.2,43.5,132.1,42.7,129,42.4z M146.4,48.9l-2.9,4.1
						c2.2,1.5,4.2,3.4,6,5.5l3.8-3.2C151.3,52.8,148.9,50.7,146.4,48.9z M158.4,63.1l-4.5,2.2c1.1,2.4,2,5,2.6,7.7l4.9-0.9
						C160.8,68.9,159.8,65.9,158.4,63.1z M140.4,106.7c-2.4,1.1-5,1.9-7.8,2.4l1,4.9c3.2-0.7,6.1-1.6,8.9-2.8L140.4,106.7z
						 M123.9,110.4c-3.2,0.7-6.3,2.2-8.8,4.2l3.2,3.9c1.9-1.6,4.3-2.7,6.8-3.2L123.9,110.4z M112.6,128.2c0.2-1.3,0.6-2.6,1.1-3.8
						l-4.6-2c-0.7,1.7-1.2,3.3-1.4,5.1c-0.2,1-0.2,1.9-0.2,2.8c0,0.6,0.1,1.2,0.1,1.8l5-0.4c-0.1-0.4-0.1-0.9-0.1-1.4
						C112.5,129.7,112.5,128.9,112.6,128.2z"/>
				</g>
			</g>
		</g>
		<g>
			<path class="st3" d="M161,195.7c-1.6,0-3.3-0.1-5.1-0.4l-121.4-17c-11-1.6-14.4-14.4-12.8-25.7S30,129.9,41,131.4l17.3,2.4
				l5-36.2c0-0.5,0.4-0.9,0.9-1.1l6.1-2.3l-5.2-2.8c-0.5-0.2-0.8-0.8-0.7-1.4l1.2-8.1c0.1-0.6,0.5-1,1-1.2l14.8-3.4L68.4,67.1
				c-0.4-0.3-0.6-0.8-0.5-1.2L72,36.3v0c1.7-9.5,5.8-15.5,12.2-18.1c2.8-1.1,5.9-1.5,9.2-1l122.3,17.1c0.1,0,0.1,0,0.2,0
				c5.1,1.7,8.8,5.3,10.9,10.5c3.1,7.7,2.1,18.2-2.4,26.8l0,0c-1.3,2.4-4.1,3.8-6.8,3.4l-18.4-2.6l-12.1,86.9
				c-2.1,16.9-6.1,27.1-12.9,32.4C170.3,194.4,166.1,195.7,161,195.7z M39.1,134c-8.2,0-13.4,9.6-14.7,19
				c-1.4,10,1.3,21.3,10.5,22.6l121.4,17c6.7,1,11.9,0,15.9-3.1c6.1-4.7,9.9-14.4,11.9-30.5l12.4-88.3c0.1-0.8,0.8-1.2,1.6-1.2
				l19.8,2.8c1.6,0.2,3.2-0.6,4-2.1l0,0c4.2-8,5.1-17.6,2.4-24.5c-1.8-4.3-4.9-7.4-9.1-8.8l-122.2-17c-2.8-0.4-5.4-0.1-7.8,0.9
				c-5.6,2.2-9,7.5-10.5,16.1l-4,28.8l14.7,11.6c0.4,0.3,0.6,0.8,0.5,1.3s-0.5,0.9-1,1.1l-16.7,3.8l-0.8,6.2l7.1,3.7
				c0.5,0.2,0.8,0.8,0.8,1.3c-0.1,0.6-0.4,1-0.9,1.2L66,98.8l-5.1,36.8c-0.1,0.8-0.8,1.2-1.5,1.1l-18.7-2.6
				C40.1,134.1,39.6,134,39.1,134z"/>
		</g>
		<g>
			<path class="st3" d="M196.4,70.7l1.2-8.7l0.6-4.3l0.3-2.2c0.1-0.7,0.2-1.5,0.4-2.2c0.6-3,1.6-6,3.4-8.7c0.9-1.3,1.9-2.5,3.3-3.5
				c1.4-1,2.9-1.7,4.6-2c1.7-0.2,3.4,0,5.1,0.5s3,1.6,4.1,2.8c2.3,2.4,3.5,5.5,3.9,8.7c0.2,1.5,0.2,3.1,0.1,4.6
				c-0.1,1.5-0.4,3-0.8,4.5c-0.8,2.9-1.9,5.7-3.4,8.2c0.9-2.8,1.6-5.7,1.9-8.5c0.1-1.4,0.2-2.8,0.2-4.2s-0.2-2.8-0.5-4.2
				c-0.6-2.7-1.8-5.2-3.4-7c-0.9-1-1.9-1.7-3.1-2.2c-1.1-0.5-2.4-0.7-3.6-0.5c-1.2,0.2-2.4,0.7-3.4,1.5c-1.1,0.8-1.9,1.8-2.6,2.8
				c-1.4,2.2-2.4,4.9-2.9,7.7c-0.1,0.7-0.2,1.3-0.4,2.1l-0.3,2.2l-0.6,4.3l-1.2,8.7c-0.1,0.8-0.8,1.2-1.6,1.2
				C196.9,72.1,196.3,71.4,196.4,70.7z"/>
		</g>
		<g class="st2">
			<path class="st3" d="M219.1,68.4l-20.6-2.9l1.5-10.7C204.2,28.9,231.3,40.4,219.1,68.4z"/>
		</g>
		<g>
			<g>
				<circle class="st5" cx="178.6" cy="105.1" r="40.5"/>
			</g>
			<g>
				
					<rect x="194.3" y="138.6" transform="matrix(0.8713 -0.4907 0.4907 0.8713 -45.059 116.8388)" class="st3" width="11.8" height="11.5"/>
			</g>
			<g>
				<path class="st6" d="M232,191.6l-7.8,4.4c-2.6,1.5-6.1,0.6-7.6-2.1l-3.9-6.8L197,159.2c-1.5-2.6-0.6-6.1,2.1-7.6l7.8-4.4
					c0.1,0,0.1-0.1,0.3-0.1c2.6-1.2,5.8-0.3,7.2,2.2l19.6,34.8C235.6,186.7,234.6,190.1,232,191.6z"/>
			</g>
			<g>
				<path class="st1" d="M209.9,109.5c-1.4,10.2-7.6,18.7-16,23.3l0,0c-5.8,3.2-12.6,4.6-19.7,3.6c-17.3-2.4-29.4-18.4-26.9-35.7
					c2.4-17.3,18.4-29.3,35.7-26.9c6.6,0.9,12.4,3.8,16.9,8l0,0C207.4,88.6,211.4,98.8,209.9,109.5z"/>
			</g>
			<g class="st2">
				<path class="st3" d="M198,80.1l-7.6,54.4c-4.9,2-10.4,2.8-16.1,1.9c-5.1-0.7-9.6-2.6-13.6-5.3c12.8-12.5,23.4-31,32.4-54.3
					C194.8,77.8,196.4,78.9,198,80.1z"/>
			</g>
			<g>
				<path class="st7" d="M209.9,109.5c-1.4,10.2-7.6,18.7-16,23.3c1.6-1.3,1.9-5.1,1.9-5.1l5.4-38.4c0.4-4.2-1.2-7.4-1.3-7.6
					C207.4,88.6,211.4,98.8,209.9,109.5z"/>
			</g>
			<g class="st8">
				<path class="st9" d="M215.9,173.1l-2.4,1.4c-0.8,0.4-1.9,0.1-2.4-0.6l-1.2-2.1l-4.9-8.6c-0.4-0.8-0.1-1.9,0.6-2.4l2.4-1.4
					c0,0,0.1,0,0.1-0.1c0.8-0.4,1.8-0.1,2.2,0.7l6.1,10.8C217.1,171.6,216.8,172.7,215.9,173.1z"/>
			</g>
			<g>
				<path class="st10" d="M232,191.6l-7.8,4.4c-2.6,1.5-6.1,0.6-7.6-2.1l-3.9-6.8c5.1,3.6,14.3-0.9,10.2-12.6
					c-0.6-1.6-1.3-3.1-2.1-4.5l-13.9-22.9c0.1,0,0.1-0.1,0.3-0.1c2.6-1.2,5.8-0.3,7.2,2.2L234,184
					C235.6,186.7,234.6,190.1,232,191.6z"/>
			</g>
			<g>
				<path class="st3" d="M221.5,198.1c-0.6,0-1.2-0.1-1.9-0.2c-1.8-0.5-3.2-1.6-4.1-3.2l-19.6-34.8c-1.9-3.3-0.7-7.6,2.6-9.4
					l7.8-4.4c1.6-0.9,3.4-1.1,5.2-0.6s3.2,1.6,4.1,3.2l19.6,34.8c1.9,3.3,0.7,7.6-2.6,9.4l0,0l-7.8,4.4
					C223.8,197.8,222.6,198.1,221.5,198.1z M209.7,147.8c-0.7,0-1.4,0.2-2.1,0.6l-7.8,4.4c-2,1.1-2.7,3.7-1.6,5.7l19.6,34.8
					c0.6,0.9,1.4,1.6,2.5,1.9s2.2,0.1,3.1-0.4l7.8-4.4c2-1.1,2.7-3.7,1.6-5.7l-19.6-34.8c-0.6-0.9-1.4-1.6-2.5-1.9
					C210.4,147.9,210,147.8,209.7,147.8z M232,191.6L232,191.6L232,191.6z"/>
			</g>
			<g class="st11">
				<path class="st3" d="M209.9,109.5c-1.4,10.2-7.6,18.7-16,23.3l0,0c-1.1,0.6-2.4,1.2-3.6,1.7c-4.9,2-10.4,2.8-16.1,1.9
					c-5.1-0.7-9.6-2.6-13.6-5.3c-9.6-6.6-15.1-18.2-13.4-30.4c2.4-17.3,18.4-29.3,35.7-27c3.6,0.5,6.9,1.6,10,3.2
					c1.8,0.9,3.4,1.9,4.9,3.2c0.7,0.6,1.4,1.1,2,1.7l0,0C207.4,88.6,211.4,98.8,209.9,109.5z"/>
			</g>
			<g class="st12">
				<path class="st3" d="M150,103.5c-1.3,9.4,1.6,18.4,7.4,25.1c-7.5-6.8-11.6-17.1-10.1-27.8c2.4-17.3,18.4-29.3,35.7-26.9
					c6.6,0.9,12.4,3.8,16.9,8l0,0c0.9,0.8,1.8,1.8,2.6,2.7c-4.6-4.2-10.4-7-16.9-7.9C168.4,74.1,152.4,86.2,150,103.5z"/>
			</g>
			<g>
				<path class="st10" d="M218.7,110.7c-3.1,22.2-23.6,37.6-45.8,34.5c-12.2-1.7-22.4-8.7-28.6-18.4c6.2,7.9,15.4,13.5,26.1,15
					c22.1,3.1,42.7-12.4,45.8-34.5c1.4-9.9-0.9-19.6-5.9-27.4C217,88.4,220.3,99.3,218.7,110.7z"/>
			</g>
			<g class="st13">
				<path class="st9" d="M217,92c-5.4-12.7-17.1-22.3-31.7-24.3c-22.1-3.1-42.7,12.3-45.8,34.5c-0.9,6.5-0.2,12.8,1.8,18.7
					c-2.8-6.5-3.9-13.8-2.8-21.3c3.1-22.2,23.6-37.6,45.8-34.5C199.9,67.2,212.2,78,217,92z"/>
			</g>
			<g>
				<path class="st3" d="M178.7,147c-1.9,0-3.9-0.1-5.9-0.4c-22.9-3.2-38.8-24.4-35.7-47.3c1.6-11.1,7.3-20.9,16.2-27.7
					s19.9-9.6,31-8c11.1,1.5,20.9,7.3,27.6,16.3s9.6,19.9,8.1,31c-1.6,11.1-7.3,20.9-16.2,27.7C196.5,144.1,187.7,147,178.7,147z
					 M178.5,66c-8.4,0-16.6,2.8-23.5,7.9c-8.4,6.3-13.8,15.4-15.2,25.8c-3,21.4,11.9,41.2,33.4,44.2c10.4,1.4,20.6-1.2,29-7.5
					s13.8-15.5,15.2-25.9c1.4-10.3-1.2-20.7-7.5-29S194.4,67.8,184,66.4C182.2,66.1,180.4,66,178.5,66z"/>
			</g>
			<g>
				<path class="st3" d="M178.6,137.9c-1.5,0-3.1-0.1-4.6-0.3c-17.9-2.5-30.4-19.1-27.9-37s19.1-30.4,37-27.9
					c8.6,1.2,16.4,5.8,21.6,12.7c5.2,7,7.5,15.6,6.3,24.3C208.8,126,194.7,137.9,178.6,137.9z M178.6,74.6
					c-14.9,0-28.1,11.1-30.2,26.3c-2.4,16.7,9.4,32.1,26,34.5c1.4,0.2,2.9,0.3,4.2,0.3c14.9,0,28.1-11.1,30.2-26.3
					c2.4-16.7-9.4-32.1-26-34.4C181.4,74.7,180,74.6,178.6,74.6z"/>
			</g>
			<g>
				<path class="st3" d="M166.9,79.7l-6.5-0.4c-0.1,1.2-0.1,2.3-0.3,3.4c-0.3,2-0.7,4-1.3,6.1l6.3,1.7c0.6-2.2,1.2-4.6,1.5-6.8
					C166.8,82.3,166.9,81,166.9,79.7z"/>
			</g>
			<g>
				<path class="st3" d="M154.8,97.3c-1.9,2.7-4.1,5-6.7,6.9l4.3,4.5c3.1-2.3,5.8-5.2,7.9-8.3L154.8,97.3z"/>
			</g>
			<g class="st2">
				<path class="st3" d="M209.9,109.5c-2.4,17.3-18.4,29.4-35.7,27c-17.3-2.4-29.4-18.4-26.9-35.7c0-0.2,0.1-0.3,0.1-0.5
					c-1.3,15.5,9.7,29.5,25.3,31.7c16.1,2.2,31.1-9,33.3-25.2c2.2-15.8-8.5-30.4-24.1-33.2c0.4,0.1,0.8,0.1,1.1,0.2
					C200.3,76.2,212.4,92.2,209.9,109.5z"/>
			</g>
			<g>
				<path class="st3" d="M193.9,133.9c-0.4,0-0.6-0.1-0.9-0.4c-0.4-0.5-0.3-1.2,0.1-1.6c0.9-0.8,1.4-3,1.6-4.3v-0.1l5.4-38.4
					c0.4-3.8-1.1-6.8-1.2-6.9c-0.3-0.6-0.1-1.2,0.5-1.6c0.6-0.3,1.2-0.1,1.6,0.5c0.1,0.2,1.9,3.7,1.4,8.2v0.1l-5.4,38.4
					c-0.1,0.6-0.4,4.2-2.4,5.8C194.4,133.8,194.2,133.9,193.9,133.9z M201.3,89.3L201.3,89.3L201.3,89.3z"/>
			</g>
			<g>
				<g>
					<defs>
						<polygon id="SVGID_1_" points="4.2,6.6 4.7,6.6 4.2,7.1 						"/>
					</defs>
					<defs>
						<polygon id="SVGID_00000043426216188585223300000007790946643400636348_" points="3.2,5.6 2.7,5.6 3.2,5.1 						"/>
					</defs>
					<clipPath id="SVGID_00000178196751700473254240000006464208247439674509_">
						<use xlink:href="#SVGID_1_"  style="overflow:visible;"/>
					</clipPath>
					
						<clipPath id="SVGID_00000083781403960848705110000014584927679734261135_" style="clip-path:url(#SVGID_00000178196751700473254240000006464208247439674509_);">
						<use xlink:href="#SVGID_00000043426216188585223300000007790946643400636348_"  style="overflow:visible;"/>
					</clipPath>
					<defs>
						<filter id="Adobe_OpacityMaskFilter" filterUnits="userSpaceOnUse" x="153.1" y="80.2" width="42.2" height="36.7">
							<feColorMatrix  type="matrix" values="1 0 0 0 0  0 1 0 0 0  0 0 1 0 0  0 0 0 1 0"/>
						</filter>
					</defs>
					
						<mask maskUnits="userSpaceOnUse" x="153.1" y="80.2" width="42.2" height="36.7" id="SVGID_00000145035614715812534400000014550614509610069404_">
						<g class="st15">
							<g>
								<defs>
									<polygon id="SVGID_00000002366308220900226930000017743404288183495064_" points="4.2,6.6 4.7,6.6 4.2,7.1 									"/>
								</defs>
								<defs>
									<polygon id="SVGID_00000183214696518847471370000007991944789360028850_" points="3.2,5.6 2.7,5.6 3.2,5.1 									"/>
								</defs>
								
									<clipPath id="SVGID_00000041282186653693406990000013267653031983073214_" style="clip-path:url(#SVGID_00000083781403960848705110000014584927679734261135_);">
									<use xlink:href="#SVGID_00000002366308220900226930000017743404288183495064_"  style="overflow:visible;"/>
								</clipPath>
								
									<clipPath id="SVGID_00000032617682631917489080000015346061276848483221_" style="clip-path:url(#SVGID_00000041282186653693406990000013267653031983073214_);">
									<use xlink:href="#SVGID_00000183214696518847471370000007991944789360028850_"  style="overflow:visible;"/>
								</clipPath>
								
									<linearGradient id="SVGID_00000022532331800939394620000017084725149618003851_" gradientUnits="userSpaceOnUse" x1="-220.8158" y1="202.337" x2="-198.7283" y2="191.2932" gradientTransform="matrix(0.9904 0.1385 0.1385 -0.9904 354.9911 323.074)">
									<stop  offset="0" style="stop-color:#FFFFFF"/>
									<stop  offset="1" style="stop-color:#000000"/>
								</linearGradient>
								
									<path style="clip-path:url(#SVGID_00000032617682631917489080000015346061276848483221_);fill:url(#SVGID_00000022532331800939394620000017084725149618003851_);" d="
									M181,108.3c-10.6,8.1-21,11.9-25.9,5.3c-5-6.6-0.4-18.4,10.2-26.5s23.3-9.2,28.3-2.6S191.7,100.2,181,108.3z"/>
							</g>
						</g>
					</mask>
					
						<linearGradient id="SVGID_00000023986673012409978000000009392807559520871613_" gradientUnits="userSpaceOnUse" x1="-220.8158" y1="202.337" x2="-198.7283" y2="191.2932" gradientTransform="matrix(0.9904 0.1385 0.1385 -0.9904 354.9911 323.074)">
						<stop  offset="0" style="stop-color:#FFFFFF"/>
						<stop  offset="1" style="stop-color:#000000"/>
					</linearGradient>
					
						<path style="clip-path:url(#SVGID_00000083781403960848705110000014584927679734261135_);mask:url(#SVGID_00000145035614715812534400000014550614509610069404_);fill:url(#SVGID_00000023986673012409978000000009392807559520871613_);" d="
						M181,108.3c-10.6,8.1-21,11.9-25.9,5.3c-5-6.6-0.4-18.4,10.2-26.5s23.3-9.2,28.3-2.6S191.7,100.2,181,108.3z"/>
				</g>
			</g>
			
				<linearGradient id="SVGID_00000031916243379598010260000008923751500319254719_" gradientUnits="userSpaceOnUse" x1="-220.8158" y1="202.337" x2="-198.7283" y2="191.2932" gradientTransform="matrix(0.9904 0.1385 0.1385 -0.9904 354.9911 323.074)">
				<stop  offset="0" style="stop-color:#FFFFFF"/>
				<stop  offset="1" style="stop-color:#F1F2F2"/>
			</linearGradient>
			<path style="opacity:0.6;fill:url(#SVGID_00000031916243379598010260000008923751500319254719_);enable-background:new    ;" d="
				M181,108.3c-10.6,8.1-21,11.9-25.9,5.3c-5-6.6-0.4-18.4,10.2-26.5s23.3-9.2,28.3-2.6S191.7,100.2,181,108.3z"/>
			<g class="st21">
				
					<ellipse transform="matrix(0.6637 -0.748 0.748 0.6637 -17.0815 158.1851)" class="st9" cx="167.4" cy="98.1" rx="8.3" ry="5.1"/>
			</g>
		</g>
		<g>
			<path class="st3" d="M157.4,195.5c-0.1,0-0.1,0-0.2,0c-4.4-0.8-8.1-3.2-10.7-7.1c-2.4-3.6-4.9-10-2.8-20.1
				c0.1-0.7,0.8-1.1,1.6-1.1l18.2,2.6c3.6-0.1,5.9-2.1,6.2-5.6c0.6-5.2-3.5-11.8-11.4-13.6l-99.1-13.9c-0.8-0.1-1.2-0.8-1.2-1.6
				s0.8-1.2,1.5-1.2l99.1,13.9c0.1,0,0.1,0,0.1,0c9.8,2.3,14.2,10.3,13.5,16.6c-0.6,4.9-4.1,8-9.1,8c-0.1,0-0.1,0-0.2,0l-17.1-2.4
				c-1.1,6.6-0.2,12.5,2.6,16.7c2.1,3.1,5.3,5.2,8.9,5.9c0.8,0.1,1.2,0.9,1.1,1.6C158.7,195,158.1,195.5,157.4,195.5z"/>
		</g>
		<g>
			<path class="st3" d="M143.7,168.4c0.8-2.8,1.9-5.4,3.7-7.7s4-4.2,6.6-5.2c1.4-0.5,2.8-0.8,4.2-0.8c1.4,0.1,2.9,0.5,4.1,1.3
				s2.1,1.9,2.8,3.1s1.1,2.5,1.5,3.8c-0.4-1.3-1.1-2.5-1.8-3.6s-1.8-2-2.9-2.6s-2.4-0.9-3.7-0.9c-1.2,0-2.5,0.4-3.6,0.9
				c-2.3,1.1-4.1,3-5.6,5.1c-1.4,2.1-2.2,4.6-2.7,7.1l0,0c-0.1,0.8-0.9,1.2-1.6,1.1s-1.2-0.9-1.1-1.6
				C143.7,168.4,143.7,168.4,143.7,168.4z"/>
		</g>
		<g class="st2">
			<path class="st3" d="M145,168.7c3.1-13.9,17.8-18.9,21.6-5.9c0,0,1.9,6.6-3.4,7.8C157.9,171.7,145,168.7,145,168.7z"/>
		</g>
		<g>
			<path class="st22" d="M104.1,47.7l5.1-3.3c0.5-0.3,0.6-1,0.3-1.5l-2.7-4.1c-0.3-0.5-0.9-0.6-1.4-0.3l-5.8,3.8l-4.5-5.3
				c-0.3-0.5-1-0.5-1.4-0.1l-3.8,3.2c-0.4,0.3-0.5,1-0.1,1.5l3.9,4.7l-5.1,3.3c-0.5,0.3-0.6,1-0.3,1.5l2.7,4.1
				c0.3,0.5,0.9,0.6,1.4,0.3l5.8-3.8l4.5,5.3c0.3,0.5,1,0.5,1.4,0.1l3.8-3.2c0.4-0.3,0.5-1,0.1-1.5L104.1,47.7z"/>
		</g>
		<g>
			<path class="st3" d="M119,141.8l-1.1,1.6c0,0-1.2,0.6-1.4,0.5c-0.1-0.1-0.3-0.1-0.6-0.2c-0.7-0.2-1.7-0.6-1.7-0.6l-2.7-0.4
				c-0.2-0.2-0.3-0.4-0.5-0.6c-0.1-0.1-0.2-0.3-0.3-0.4l4.1-2.9c0.8,1.1,1.6,1.9,2.6,2.4C117.5,141.2,118.1,141.5,119,141.8z"/>
		</g>
		<g class="st2">
			<path class="st3" d="M152.3,193.4L152.3,193.4L34.7,177c-7.5-1.1-11.2-8.1-11.9-16.3l0,0c9.4,18.5,89.9,24.7,122.7-1.4
				c-6.6,9.5-5.8,29.3,4.1,30.6L152.3,193.4z"/>
		</g>
		<g class="st23">
			<path class="st9" d="M96,156.8c-0.8,5.8-13.5,8.7-28.4,6.6s-26.3-8.4-25.5-14.1s10.7-5.8,25.5-3.8S96.8,151,96,156.8z"/>
		</g>
	</g>
</g>
</svg>
